<?xml version="1.0" encoding="UTF-8"?>
<svg width="17px" height="13px" viewBox="0 0 17 13" version="1.1" xmlns="http://www.w3.org/2000/svg" xmlns:xlink="http://www.w3.org/1999/xlink">
    <!-- Generator: Sketch 47 (45396) - http://www.bohemiancoding.com/sketch -->
    <!-- <title>ic_view_module_24px@2x</title> -->
    <desc>Created with Sketch.</desc>
    <defs></defs>
    <g id="v2" stroke="none" stroke-width="1" fill="none" fill-rule="evenodd">
        <g id="JobsGrid_v5" transform="translate(-38.000000, -220.000000)" fill-rule="nonzero" fill="#E20074">
            <g id="Group-6" transform="translate(37.000000, 220.000000)">
                <g id="ic_view_module_24px" transform="translate(1.000000, 0.000000)">
                    <path d="M0,6 L5,6 L5,0 L0,0 L0,6 Z M0,13 L5,13 L5,7 L0,7 L0,13 Z M6,13 L11,13 L11,7 L6,7 L6,13 Z M12,13 L17,13 L17,7 L12,7 L12,13 Z M6,6 L11,6 L11,0 L6,0 L6,6 Z M12,0 L12,6 L17,6 L17,0 L12,0 Z" id="Shape"></path>
                </g>
            </g>
        </g>
    </g>
</svg>